<svg width="127" height="24" viewBox="0 0 127 24" fill="none" xmlns="http://www.w3.org/2000/svg">
<g clip-path="url(#clip0_10675_695)">
<path fill-rule="evenodd" clip-rule="evenodd" d="M8.02806 0.302124C6.70724 0.302124 5.44057 0.826809 4.50662 1.76075L0 6.26735V8.33017C0 9.78756 0.626014 11.0987 1.62381 12.0094C0.626014 12.9201 0 14.2313 0 15.6887V17.7515L4.50662 22.2581C5.44057 23.1921 6.70724 23.7168 8.02806 23.7168C9.48544 23.7168 10.7966 23.0908 11.7073 22.0929C12.618 23.0908 13.9292 23.7168 15.3866 23.7168C16.7074 23.7168 17.9741 23.1921 18.908 22.2581L23.4146 17.7515V15.6887C23.4146 14.2313 22.7886 12.9201 21.7908 12.0094C22.7886 11.0987 23.4146 9.78756 23.4146 8.33017V6.26735L18.908 1.76075C17.9741 0.826809 16.7074 0.302124 15.3866 0.302124C13.9292 0.302124 12.618 0.928136 11.7073 1.92593C10.7966 0.928136 9.48544 0.302124 8.02806 0.302124ZM15.0783 12.0094C15.0222 11.9582 14.9671 11.9056 14.9131 11.8516L11.7073 8.6458L8.5015 11.8516C8.44753 11.9056 8.39245 11.9582 8.33631 12.0094C8.39245 12.0607 8.44753 12.1133 8.5015 12.1672L11.7073 15.3731L14.9131 12.1672C14.9671 12.1133 15.0222 12.0607 15.0783 12.0094ZM13.0081 17.7515V18.7367C13.0081 20.0503 14.073 21.1152 15.3866 21.1152C16.0174 21.1152 16.6223 20.8646 17.0684 20.4185L20.813 16.6739V15.6887C20.813 14.3751 19.7481 13.3102 18.4346 13.3102C17.8038 13.3102 17.1988 13.5608 16.7528 14.0069L13.0081 17.7515ZM10.4065 17.7515L6.66187 14.0069C6.21582 13.5608 5.61087 13.3102 4.98007 13.3102C3.66649 13.3102 2.60162 14.3751 2.60162 15.6887V16.6739L6.34624 20.4185C6.79229 20.8646 7.39727 21.1152 8.02806 21.1152C9.34162 21.1152 10.4065 20.0503 10.4065 18.7367V17.7515ZM10.4065 5.28219V6.26735L6.66187 10.012C6.21582 10.458 5.61087 10.7086 4.98007 10.7086C3.66649 10.7086 2.60162 9.64374 2.60162 8.33017V7.345L6.34624 3.60038C6.79229 3.15433 7.39727 2.90375 8.02806 2.90375C9.34162 2.90375 10.4065 3.96861 10.4065 5.28219ZM16.7528 10.012L13.0081 6.26735V5.28219C13.0081 3.96861 14.073 2.90375 15.3866 2.90375C16.0174 2.90375 16.6223 3.15433 17.0684 3.60038L20.813 7.345V8.33017C20.813 9.64374 19.7481 10.7086 18.4346 10.7086C17.8038 10.7086 17.1988 10.458 16.7528 10.012Z" fill="#FF630B"/>
</g>
<path d="M39.0397 9.42045C38.9791 8.88258 38.7291 8.46591 38.2897 8.17045C37.8503 7.87121 37.2972 7.72159 36.6306 7.72159C36.1533 7.72159 35.7404 7.79735 35.3919 7.94886C35.0435 8.09659 34.7726 8.30114 34.5794 8.5625C34.3901 8.82008 34.2954 9.11364 34.2954 9.44318C34.2954 9.7197 34.3597 9.95833 34.4885 10.1591C34.6211 10.3598 34.7935 10.5284 35.0056 10.6648C35.2215 10.7973 35.4526 10.9091 35.6988 11C35.945 11.0871 36.1817 11.1591 36.409 11.2159L37.5454 11.5114C37.9166 11.6023 38.2972 11.7254 38.6874 11.8807C39.0776 12.036 39.4393 12.2405 39.7726 12.4943C40.106 12.7481 40.3749 13.0625 40.5794 13.4375C40.7878 13.8125 40.8919 14.2614 40.8919 14.7841C40.8919 15.4432 40.7215 16.0284 40.3806 16.5398C40.0435 17.0511 39.5529 17.4545 38.909 17.75C38.2688 18.0455 37.4942 18.1932 36.5851 18.1932C35.7139 18.1932 34.9601 18.0549 34.3238 17.7784C33.6874 17.5019 33.1893 17.1098 32.8294 16.6023C32.4696 16.0909 32.2707 15.4848 32.2329 14.7841H33.9942C34.0283 15.2045 34.1647 15.5549 34.4033 15.8352C34.6457 16.1117 34.9544 16.3182 35.3294 16.4545C35.7082 16.5871 36.123 16.6534 36.5738 16.6534C37.07 16.6534 37.5113 16.5758 37.8976 16.4205C38.2878 16.2614 38.5946 16.0417 38.8181 15.7614C39.0416 15.4773 39.1533 15.1458 39.1533 14.767C39.1533 14.4223 39.0548 14.1402 38.8579 13.9205C38.6647 13.7008 38.4014 13.5189 38.0681 13.375C37.7385 13.2311 37.3654 13.1042 36.9488 12.9943L35.5738 12.6193C34.6419 12.3655 33.9033 11.9924 33.3579 11.5C32.8162 11.0076 32.5454 10.3561 32.5454 9.54545C32.5454 8.875 32.7272 8.28977 33.0908 7.78977C33.4544 7.28977 33.9469 6.90151 34.5681 6.625C35.1893 6.3447 35.8901 6.20455 36.6704 6.20455C37.4582 6.20455 38.1533 6.3428 38.7556 6.61932C39.3616 6.89583 39.8389 7.27652 40.1874 7.76136C40.5359 8.24242 40.7177 8.79545 40.7329 9.42045H39.0397ZM42.8536 18V9.27273H44.5525V18H42.8536ZM43.7115 7.92614C43.4161 7.92614 43.1623 7.82765 42.9502 7.63068C42.7419 7.42992 42.6377 7.19129 42.6377 6.91477C42.6377 6.63447 42.7419 6.39583 42.9502 6.19886C43.1623 5.99811 43.4161 5.89773 43.7115 5.89773C44.007 5.89773 44.2589 5.99811 44.4672 6.19886C44.6794 6.39583 44.7854 6.63447 44.7854 6.91477C44.7854 7.19129 44.6794 7.42992 44.4672 7.63068C44.2589 7.82765 44.007 7.92614 43.7115 7.92614ZM53.3777 11.4034L51.838 11.6761C51.7736 11.4792 51.6713 11.2917 51.5312 11.1136C51.3948 10.9356 51.2092 10.7898 50.9743 10.6761C50.7395 10.5625 50.4459 10.5057 50.0937 10.5057C49.6126 10.5057 49.2111 10.6136 48.8891 10.8295C48.5671 11.0417 48.4062 11.3163 48.4062 11.6534C48.4062 11.9451 48.5141 12.1799 48.73 12.358C48.9459 12.536 49.2944 12.6818 49.7755 12.7955L51.1618 13.1136C51.9649 13.2992 52.5633 13.5852 52.9573 13.9716C53.3512 14.358 53.5482 14.8598 53.5482 15.4773C53.5482 16 53.3967 16.4659 53.0937 16.875C52.7944 17.2803 52.3758 17.5985 51.838 17.8295C51.3039 18.0606 50.6846 18.1761 49.98 18.1761C49.0027 18.1761 48.2054 17.9678 47.588 17.5511C46.9705 17.1307 46.5918 16.5341 46.4516 15.7614L48.0937 15.5114C48.1959 15.9394 48.4062 16.2633 48.7243 16.483C49.0425 16.6989 49.4573 16.8068 49.9687 16.8068C50.5255 16.8068 50.9705 16.6913 51.3039 16.4602C51.6372 16.2254 51.8039 15.9394 51.8039 15.6023C51.8039 15.3295 51.7016 15.1004 51.4971 14.9148C51.2963 14.7292 50.9876 14.589 50.5709 14.4943L49.0937 14.1705C48.2793 13.9848 47.677 13.6894 47.2868 13.2841C46.9005 12.8788 46.7073 12.3655 46.7073 11.7443C46.7073 11.2292 46.8512 10.7784 47.1391 10.392C47.427 10.0057 47.8247 9.70455 48.3323 9.48864C48.8399 9.26894 49.4213 9.15909 50.0766 9.15909C51.0198 9.15909 51.7622 9.36364 52.3039 9.77273C52.8455 10.178 53.2035 10.7216 53.3777 11.4034ZM59.49 9.27273V10.6364H54.7229V9.27273H59.49ZM56.0013 7.18182H57.7002V15.4375C57.7002 15.767 57.7494 16.0152 57.8479 16.1818C57.9464 16.3447 58.0733 16.4564 58.2286 16.517C58.3877 16.5739 58.56 16.6023 58.7456 16.6023C58.882 16.6023 59.0013 16.5928 59.1036 16.5739C59.2059 16.5549 59.2854 16.5398 59.3422 16.5284L59.649 17.9318C59.5506 17.9697 59.4104 18.0076 59.2286 18.0455C59.0468 18.0871 58.8195 18.1098 58.5468 18.1136C58.0998 18.1212 57.6831 18.0417 57.2968 17.875C56.9104 17.7083 56.5979 17.4508 56.3593 17.1023C56.1206 16.7538 56.0013 16.3163 56.0013 15.7898V7.18182ZM65.0368 18.1761C64.177 18.1761 63.4365 17.9924 62.8152 17.625C62.1978 17.2538 61.7205 16.733 61.3834 16.0625C61.0501 15.3883 60.8834 14.5985 60.8834 13.6932C60.8834 12.7992 61.0501 12.0114 61.3834 11.3295C61.7205 10.6477 62.1902 10.1155 62.7925 9.73295C63.3986 9.35038 64.1069 9.15909 64.9175 9.15909C65.4099 9.15909 65.8872 9.24053 66.3493 9.40341C66.8115 9.56629 67.2262 9.82197 67.5937 10.1705C67.9611 10.5189 68.2508 10.9716 68.463 11.5284C68.6751 12.0814 68.7812 12.7538 68.7812 13.5455V14.1477H61.8437V12.875H67.1164C67.1164 12.428 67.0255 12.0322 66.8437 11.6875C66.6618 11.339 66.4062 11.0644 66.0766 10.8636C65.7508 10.6629 65.3683 10.5625 64.9289 10.5625C64.4516 10.5625 64.0349 10.6799 63.6789 10.9148C63.3266 11.1458 63.0539 11.4489 62.8607 11.8239C62.6713 12.1951 62.5766 12.5985 62.5766 13.0341V14.0284C62.5766 14.6117 62.6789 15.108 62.8834 15.517C63.0918 15.9261 63.3815 16.2386 63.7527 16.4545C64.124 16.6667 64.5577 16.7727 65.0539 16.7727C65.3758 16.7727 65.6694 16.7273 65.9346 16.6364C66.1997 16.5417 66.4289 16.4015 66.6221 16.2159C66.8152 16.0303 66.963 15.8011 67.0652 15.5284L68.6732 15.8182C68.5444 16.2917 68.3133 16.7064 67.98 17.0625C67.6505 17.4148 67.2357 17.6894 66.7357 17.8864C66.2395 18.0795 65.6732 18.1761 65.0368 18.1761ZM70.6661 18V9.27273H72.2968V10.6932H72.4047C72.5865 10.2121 72.8839 9.83712 73.2968 9.56818C73.7097 9.29545 74.204 9.15909 74.7797 9.15909C75.3631 9.15909 75.8517 9.29545 76.2456 9.56818C76.6434 9.84091 76.9369 10.2159 77.1263 10.6932H77.2172C77.4256 10.2273 77.757 9.85606 78.2115 9.57955C78.6661 9.29924 79.2078 9.15909 79.8365 9.15909C80.6282 9.15909 81.274 9.4072 81.774 9.90341C82.2778 10.3996 82.5297 11.1477 82.5297 12.1477V18H80.8309V12.3068C80.8309 11.7159 80.6699 11.2879 80.3479 11.0227C80.0259 10.7576 79.6415 10.625 79.1945 10.625C78.6415 10.625 78.2115 10.7955 77.9047 11.1364C77.5979 11.4735 77.4445 11.9072 77.4445 12.4375V18H75.7513V12.1989C75.7513 11.7254 75.6036 11.3447 75.3081 11.0568C75.0127 10.7689 74.6282 10.625 74.1547 10.625C73.8328 10.625 73.5354 10.7102 73.2627 10.8807C72.9937 11.0473 72.7759 11.2803 72.6093 11.5795C72.4464 11.8788 72.365 12.2254 72.365 12.6193V18H70.6661ZM88.6036 7.875V6.36364H97.6093V7.875H93.9786V18H92.2286V7.875H88.6036ZM100.815 18.1932C100.262 18.1932 99.7622 18.0909 99.3152 17.8864C98.8683 17.678 98.5141 17.3769 98.2527 16.983C97.9952 16.589 97.8664 16.1061 97.8664 15.5341C97.8664 15.0417 97.9611 14.6364 98.1505 14.3182C98.3399 14 98.5955 13.7481 98.9175 13.5625C99.2395 13.3769 99.5993 13.2367 99.9971 13.142C100.395 13.0473 100.8 12.9754 101.213 12.9261C101.736 12.8655 102.16 12.8163 102.486 12.7784C102.811 12.7367 103.048 12.6705 103.196 12.5795C103.344 12.4886 103.418 12.3409 103.418 12.1364V12.0966C103.418 11.6004 103.277 11.2159 102.997 10.9432C102.721 10.6705 102.308 10.5341 101.758 10.5341C101.186 10.5341 100.736 10.661 100.406 10.9148C100.08 11.1648 99.855 11.4432 99.73 11.75L98.1334 11.3864C98.3228 10.8561 98.5993 10.428 98.963 10.1023C99.3304 9.77273 99.7527 9.53409 100.23 9.38636C100.707 9.23485 101.209 9.15909 101.736 9.15909C102.084 9.15909 102.453 9.20076 102.844 9.28409C103.238 9.36364 103.605 9.51136 103.946 9.72727C104.291 9.94318 104.573 10.2519 104.793 10.6534C105.012 11.0511 105.122 11.5682 105.122 12.2045V18H103.463V16.8068H103.395C103.285 17.0265 103.12 17.2424 102.9 17.4545C102.681 17.6667 102.399 17.8428 102.054 17.983C101.709 18.1231 101.296 18.1932 100.815 18.1932ZM101.185 16.8295C101.654 16.8295 102.056 16.7367 102.389 16.5511C102.726 16.3655 102.982 16.1231 103.156 15.8239C103.334 15.5208 103.423 15.197 103.423 14.8523V13.7273C103.363 13.7879 103.245 13.8447 103.071 13.8977C102.9 13.947 102.705 13.9905 102.486 14.0284C102.266 14.0625 102.052 14.0947 101.844 14.125C101.635 14.1515 101.461 14.1742 101.321 14.1932C100.991 14.2348 100.69 14.3049 100.418 14.4034C100.149 14.5019 99.9327 14.6439 99.7698 14.8295C99.6107 15.0114 99.5312 15.2538 99.5312 15.5568C99.5312 15.9773 99.6865 16.2955 99.9971 16.5114C100.308 16.7235 100.703 16.8295 101.185 16.8295ZM111.459 9.27273V10.6364H106.692V9.27273H111.459ZM107.97 7.18182H109.669V15.4375C109.669 15.767 109.718 16.0152 109.817 16.1818C109.915 16.3447 110.042 16.4564 110.197 16.517C110.356 16.5739 110.529 16.6023 110.714 16.6023C110.851 16.6023 110.97 16.5928 111.072 16.5739C111.175 16.5549 111.254 16.5398 111.311 16.5284L111.618 17.9318C111.519 17.9697 111.379 18.0076 111.197 18.0455C111.016 18.0871 110.788 18.1098 110.516 18.1136C110.069 18.1212 109.652 18.0417 109.266 17.875C108.879 17.7083 108.567 17.4508 108.328 17.1023C108.089 16.7538 107.97 16.3163 107.97 15.7898V7.18182ZM113.338 18V9.27273H115.037V18H113.338ZM114.196 7.92614C113.9 7.92614 113.647 7.82765 113.435 7.63068C113.226 7.42992 113.122 7.19129 113.122 6.91477C113.122 6.63447 113.226 6.39583 113.435 6.19886C113.647 5.99811 113.9 5.89773 114.196 5.89773C114.491 5.89773 114.743 5.99811 114.952 6.19886C115.164 6.39583 115.27 6.63447 115.27 6.91477C115.27 7.19129 115.164 7.42992 114.952 7.63068C114.743 7.82765 114.491 7.92614 114.196 7.92614ZM117.459 18V6.36364H119.158V10.6875H119.26C119.358 10.5057 119.5 10.2955 119.686 10.0568C119.872 9.81818 120.129 9.60985 120.459 9.43182C120.788 9.25 121.224 9.15909 121.766 9.15909C122.47 9.15909 123.099 9.33712 123.652 9.69318C124.205 10.0492 124.639 10.5625 124.953 11.233C125.271 11.9034 125.43 12.7102 125.43 13.6534C125.43 14.5966 125.273 15.4053 124.959 16.0795C124.644 16.75 124.212 17.267 123.663 17.6307C123.114 17.9905 122.487 18.1705 121.783 18.1705C121.252 18.1705 120.819 18.0814 120.481 17.9034C120.148 17.7254 119.887 17.517 119.697 17.2784C119.508 17.0398 119.362 16.8277 119.26 16.642H119.118V18H117.459ZM119.123 13.6364C119.123 14.25 119.212 14.7879 119.391 15.25C119.569 15.7121 119.826 16.0739 120.163 16.3352C120.5 16.5928 120.913 16.7216 121.402 16.7216C121.909 16.7216 122.334 16.5871 122.675 16.3182C123.016 16.0455 123.273 15.6761 123.447 15.2102C123.625 14.7443 123.714 14.2197 123.714 13.6364C123.714 13.0606 123.627 12.5436 123.453 12.0852C123.283 11.6269 123.025 11.2652 122.68 11C122.339 10.7348 121.913 10.6023 121.402 10.6023C120.909 10.6023 120.493 10.7292 120.152 10.983C119.815 11.2367 119.559 11.5909 119.385 12.0455C119.211 12.5 119.123 13.0303 119.123 13.6364Z" fill="white"/>
<defs>
<clipPath id="clip0_10675_695">
<rect width="23.4146" height="24" fill="white"/>
</clipPath>
</defs>
</svg>
