<svg width="16" height="15" viewBox="0 0 16 15" fill="none" xmlns="http://www.w3.org/2000/svg">
<path d="M14.6665 11.0578V13.0578C14.6672 13.2435 14.6292 13.4273 14.5548 13.5974C14.4804 13.7675 14.3713 13.9202 14.2345 14.0457C14.0977 14.1713 13.9362 14.2668 13.7603 14.3263C13.5844 14.3858 13.398 14.4079 13.2131 14.3912C11.1617 14.1683 9.19113 13.4673 7.45979 12.3445C5.84901 11.3209 4.48335 9.95528 3.45979 8.3445C2.33311 6.6053 1.63195 4.62516 1.41313 2.5645C1.39647 2.38014 1.41838 2.19434 1.47746 2.01891C1.53654 1.84349 1.63151 1.68229 1.7563 1.54558C1.8811 1.40887 2.033 1.29964 2.20232 1.22485C2.37164 1.15005 2.55469 1.11134 2.73979 1.11116H4.73979C5.06333 1.10798 5.37699 1.22255 5.6223 1.43352C5.86761 1.64449 6.02784 1.93746 6.07313 2.25783C6.15754 2.89787 6.31409 3.52632 6.53979 4.13116C6.62949 4.36978 6.6489 4.62911 6.59573 4.87842C6.54256 5.12773 6.41903 5.35657 6.23979 5.53783L5.39313 6.3845C6.34216 8.05353 7.7241 9.43546 9.39313 10.3845L10.2398 9.53783C10.4211 9.35859 10.6499 9.23506 10.8992 9.18189C11.1485 9.12872 11.4078 9.14814 11.6465 9.23783C12.2513 9.46353 12.8797 9.62008 13.5198 9.7045C13.8436 9.75018 14.1394 9.9133 14.3508 10.1628C14.5622 10.4124 14.6746 10.7309 14.6665 11.0578Z" stroke="white" stroke-linecap="round" stroke-linejoin="round"/>
</svg>
